<svg viewBox="0 0 1440 416" xmlns="http://www.w3.org/2000/svg"><circle cx="528.3" cy="101.7" fill="none" r="8.4" stroke="#c9e068" stroke-miterlimit="10" stroke-width="5"/><circle cx="394.6" cy="339" fill="none" r="8.4" stroke="#6abe05" stroke-miterlimit="10" stroke-width="5"/><path d="M329.2 285.7L199.4 415.5h-45.5L15.3 276.9l152.6-152.5z" fill="#fff"/><path d="M221.2 206.9c0 91.4-74.1 165.6-165.6 165.6-19.3 0-37.8-3.3-55-9.4V50.7c17.2-6.1 35.8-9.4 55-9.4 91.4 0 165.6 74.1 165.6 165.6z" fill="#d63b3b"/><path d="M198.5 206.9c0 78.9-64 142.9-142.9 142.9-19.5 0-38.1-3.9-55-11V74.9c16.9-7.1 35.5-11 55-11 78.9 0 142.9 64 142.9 143z" fill="#f3c59a"/><path d="M95.7 268.7c6.3 8.9 14.2 19.9 14.2 40.4 0 15.6-4.6 25.8-9.6 33.6-9.4 3.1-19.2 5.2-29.3 6.3 2.4-4.6 5.1-8.3 7.6-11.8 5.8-8 10.3-14.4 10.3-28.1S84.4 289 78.6 281c-6.3-8.8-14.2-19.9-14.2-40.4s7.9-31.5 14.2-40.4c5.8-8 10.3-14.4 10.3-28.1S84.4 152 78.6 144c-6.3-8.8-14.2-19.9-14.2-40.4C64.4 84.8 71 74 77 65.5c7.6 1.1 14.9 2.9 22.1 5.1-1.2 1.7-2.3 3.3-3.4 4.8-5.8 8-10.3 14.4-10.3 28.1 0 13.8 4.5 20.1 10.3 28.1 6.3 8.8 14.2 19.9 14.2 40.3 0 20.5-7.9 31.5-14.2 40.4-5.8 8-10.3 14.4-10.3 28.1 0 13.9 4.5 20.3 10.3 28.3z" fill="#fbd9af"/><path d="M135.6 268.7c6.3 8.9 14.2 19.9 14.2 40.4 0 1.9-.1 3.8-.2 5.5-8.8 7.7-18.5 14.3-29 19.6 4.7-6.8 8.2-13.1 8.2-25.1 0-13.8-4.5-20.1-10.3-28.1-6.3-8.8-14.2-19.9-14.2-40.4s7.9-31.5 14.2-40.4c5.8-8 10.3-14.4 10.3-28.1s-4.5-20.1-10.3-28.1c-6.3-8.8-14.2-19.9-14.2-40.4 0-12.5 2.9-21.5 6.7-28.6 6.5 2.7 12.7 5.9 18.7 9.5-2.7 5-4.4 10.6-4.4 19.1 0 13.8 4.5 20.1 10.3 28.1 6.3 8.8 14.2 19.9 14.2 40.3 0 20.5-7.9 31.5-14.2 40.4-5.8 8-10.3 14.4-10.3 28.1 0 13.8 4.5 20.2 10.3 28.2z" fill="#fbd9af"/><path d="M175.4 268.7c1.7 2.3 3.5 4.8 5.2 7.6-4 7.1-8.5 13.9-13.6 20.2-1.8-6-5-10.4-8.6-15.5-6.3-8.8-14.2-19.9-14.2-40.4s7.9-31.5 14.2-40.4c5.8-8 10.3-14.4 10.3-28.1s-4.6-20.1-10.3-28.1c-6.3-8.8-14.2-19.9-14.2-40.4 0-3.1.2-5.9.5-8.6 8.4 6.7 16 14.2 22.6 22.6 1.9 5.3 4.8 9.4 8.2 14.1 6.3 8.8 14.2 19.9 14.2 40.3 0 20.5-7.9 31.5-14.2 40.4-5.8 8-10.3 14.4-10.3 28.1-.1 13.8 4.5 20.2 10.2 28.2z" fill="#fbd9af"/><path d="M49.2 157.4c.2 26.9-21.4 48.8-48.2 49H.6v-97.2c26.6 0 48.4 21.5 48.6 48.2z" fill="#fff"/><path d="M34.3 157.6c.1 18.6-14.9 33.9-33.5 34H.6V124c18.5 0 33.6 15 33.7 33.6z" fill="#f9af27"/><path d="M126.4 182.6l-40.6-43.8c-2.8-3-2.6-7.7.4-10.6L153.9 65c3-2.8 7.7-2.6 10.6.4l40.6 43.8c2.8 3 2.6 7.7-.4 10.6L136.9 183c-3 2.8-7.7 2.7-10.5-.4z" fill="#1d6046"/><circle cx="73.2" cy="274.9" fill="#fff6ec" r="39.7"/><path d="M94.2 266.7c.8 5.3.1 10.2-2.6 14.9-.1.1-.6 1-.3.5.3-.4-.2.3-.3.4-.3.4-.6.9-1 1.3-.3.4-.7.8-1.1 1.2l-.6.6c-.2.2-.7.6-.2.2-.9.8-1.8 1.5-2.7 2.2-.5.3-.9.6-1.4.9-.2.1-.5.3-.7.4-.4.2.4-.2-.3.2-1 .5-2 .9-3 1.3-.5.2-1 .4-1.6.5-.3.1-.5.1-.8.2.8-.2-.5.1-.5.1-1.1.2-2.2.4-3.3.4-.5 0-1.1.1-1.6.1h-1.1c-1.1-.1-2.2-.2-3.3-.5-.3-.1-.5-.1-.8-.2-.1 0-.9-.2-.5-.1.5.1-.4-.1-.5-.2-.4-.1-.7-.3-1.1-.4-1.1-.5-2.2-1-3.3-1.6l-.2-.1c-.3-.2-.5-.3-.7-.5-.6-.4-1.2-.9-1.8-1.4-1.6-1.4-3-3.1-4.1-5-1.1-2-1.7-4.2-1.9-6.4-.1-.7-.1-1.4-.1-2.1v-.2c0-.3 0-.6.1-.9l.3-1.8c.1-.3.1-.6.2-.9.1-.4-.1.2.1-.4.4-1.1.9-2.2 1.5-3.2-.3.5.1-.1.1-.2.2-.2.3-.5.5-.7.4-.6.9-1.2 1.4-1.7l.6-.6c.1-.1.6-.5.2-.2.4-.4.9-.8 1.4-1.1.5-.4 1-.7 1.5-1 .2-.2.5-.3.8-.5-.5.3.2-.1.4-.2 2.5-1.2 4.2-1.7 6.9-1.8 2.1-.1 4.4.3 6.3 1.2.3.1.5.3.8.4.1 0 .7.4.1.1.5.3.9.6 1.4 1 .4.4.9.7 1.3 1.1-.1-.1-.4-.5.1.1.2.3.4.5.7.8.2.2.3.5.5.7.1.2.5.8.2.3.3.6.6 1.3.8 1.9.1.3.2.5.2.8-.1-.6 0 .1 0 .3 0 .3.1.5.1.8v.9c0-.5 0 .3-.1.4 0 .3-.1.7-.2 1s-.1.5-.2.8c.2-.9-.1.4-.2.4-.1.3-.2.5-.3.7 0 .1-.5 1-.3.6s-.2.3-.3.4c-.2.3-.4.5-.6.8l-.6.6c.6-.6-.4.3-.4.3-.2.2-.4.3-.7.5.5-.3-.2.1-.4.2l-.9.3c-.4.1.3 0-.4.1-.3 0-.6.1-.9.1-1.2.1.6.1-.5 0-.3 0-.6-.1-.8-.1-.1 0-1.2-.3-.7-.1s-.4-.2-.5-.2c-.3-.1-.7-.3-1-.5-.3-.1-.5-.3-.8-.4.6.4-.5-.4-.5-.4-.6-.5-1.1-1-1.6-1.5-1.6-1.7-4.7-1.1-6.1.6-1.6 2-1.1 4.4.6 6.1 5 5.3 12.8 6.9 19.2 3.2 5.5-3.2 8.6-10.4 7.6-16.6-1-6.5-5.7-12.2-11.8-14.7-6.5-2.7-14-2-20.2 1.2-6.1 3.2-10.8 8.6-12.7 15.3-1.9 6.6-.6 13.7 2.9 19.6 3.2 5.4 8.8 9.7 14.7 11.8 6.1 2.1 12.3 2.1 18.4.4 6.3-1.7 12.3-5.7 16.2-11 4.8-6.5 6.6-14.8 5.5-22.8-.3-2.3-2.4-4.1-4.8-3.9-2.1.3-4 2.6-3.7 4.9z" fill="#f99999"/><g fill="#fff6ec"><circle cx="34.8" cy="268.6" r="8.4"/><circle cx="36.2" cy="288.1" r="8.4"/><circle cx="47.3" cy="305.5" r="8.4"/><circle cx="87.9" cy="312.2" r="8.4"/><circle cx="104.7" cy="300.4" r="8.4"/><circle cx="111.1" cy="259.8" r="8.4"/><circle cx="99.4" cy="242.9" r="8.4"/><circle cx="58.7" cy="236.7" r="8.4"/><circle cx="42.1" cy="248.9" r="8.4"/><circle cx="111.6" cy="281.3" r="8.4"/><circle cx="66.6" cy="314.9" r="8.4"/><circle cx="79.8" cy="235" r="8.4"/></g><circle cx="150.5" cy="222" fill="none" r="8.4" stroke="#6abe05" stroke-miterlimit="10" stroke-width="5"/><circle cx="59.3" cy="101.7" fill="none" r="8.4" stroke="#6abe05" stroke-miterlimit="10" stroke-width="5"/><circle cx="336.1" cy="56" fill="none" r="8.4" stroke="#6abe05" stroke-miterlimit="10" stroke-width="5"/></svg>